<svg width="924" height="850" viewBox="0 0 924 850" fill="none" xmlns="http://www.w3.org/2000/svg">
<g clip-path="url(#clip0_1_2)">
<path d="M515.073 93.3466L538.61 48.5532C545.457 35.5237 555.556 24.4856 567.927 16.5106C580.298 8.53554 594.521 3.89446 609.215 3.0379L657.14 0.245154C668.297 -0.404803 679.401 2.22424 689.082 7.80814C698.763 13.3921 706.599 21.6868 711.623 31.6699L727.091 62.404C730.495 69.1673 735.263 75.152 741.095 79.9806C746.927 84.8093 753.696 88.3772 760.975 90.4593L796.172 100.528C823.668 108.393 840.494 136.078 834.815 164.108L827.374 200.825C824.636 214.334 817.829 226.682 807.866 236.208C797.903 245.734 785.263 251.981 771.644 254.11L613.515 278.834L515.073 93.3466Z" fill="#E7E1FF"/>
<path d="M92.5575 138.98L140.984 40.77C159.764 9.588 198.727 -2.87205 232.116 11.6249L250.278 19.5115C266.701 26.6429 285.18 27.4553 302.166 21.7928L348.454 6.36403C382.929 -5.12773 420.592 10.6347 436.606 43.2555L469.728 110.722C477.095 125.727 479.059 142.816 475.288 159.101L447.565 278.862L120.109 286.915L92.5575 138.98Z" fill="#E7E1FF"/>
<path d="M352.685 229.897L288.035 125.735C272.719 101.059 278.83 68.7682 302.103 51.3975L349.762 15.8208C359.057 8.88315 370.277 5.00532 381.872 4.72372C393.467 4.44212 404.862 7.77067 414.482 14.2489L443.256 33.6274C450.006 38.1735 457.667 41.1922 465.704 42.4728C473.741 43.7534 481.961 43.265 489.79 41.0417L559.683 21.1965C584.698 14.0939 611.308 25.1626 623.907 47.9091L648.955 93.134C653.44 101.232 655.845 110.317 655.955 119.574C656.066 128.83 653.878 137.97 649.588 146.173L605.792 229.899L352.685 229.897Z" fill="#D6C5FF"/>
<path d="M508.156 229.899C505.102 229.895 502.136 228.869 499.732 226.985C497.328 225.101 495.624 222.466 494.89 219.501L478.535 153.321C476.168 143.784 476.869 133.743 480.539 124.628C484.208 115.512 490.659 107.786 498.973 102.549L533.992 80.4405C535.51 79.4811 537.203 78.8304 538.973 78.5254C540.743 78.2205 542.556 78.2673 544.308 78.6632C546.06 79.0592 547.717 79.7964 549.184 80.8329C550.651 81.8694 551.899 83.1847 552.858 84.7038C553.817 86.2225 554.467 87.9152 554.772 89.6852C555.076 91.4553 555.029 93.268 554.633 95.0199C554.238 96.7717 553.5 98.4285 552.464 99.8955C551.428 101.363 550.113 102.611 548.594 103.57L513.576 125.678C510.123 127.853 507.445 131.061 505.921 134.846C504.398 138.631 504.106 142.8 505.089 146.76L521.444 212.939C521.943 214.954 521.976 217.057 521.541 219.088C521.106 221.118 520.214 223.023 518.934 224.657C517.653 226.292 516.017 227.613 514.15 228.521C512.282 229.43 510.233 229.901 508.156 229.899Z" fill="#E9E9FF"/>
<path d="M661.202 46.5324C663.958 45.2166 667.076 44.861 670.058 45.5222C673.04 46.1833 675.715 47.8232 677.658 50.1807L720.992 102.807C727.245 110.387 730.949 119.745 731.577 129.551C732.204 139.358 729.723 149.112 724.486 157.427L702.45 192.491C701.495 194.012 700.249 195.33 698.785 196.37C697.32 197.409 695.665 198.15 693.913 198.549C692.162 198.949 690.349 199 688.579 198.698C686.808 198.397 685.114 197.75 683.593 196.794C682.073 195.838 680.755 194.592 679.716 193.128C678.676 191.663 677.936 190.007 677.536 188.256C677.137 186.505 677.086 184.693 677.387 182.922C677.688 181.151 678.335 179.457 679.29 177.937L701.326 142.872C703.501 139.42 704.531 135.37 704.271 131.298C704.01 127.226 702.472 123.34 699.876 120.193L656.542 67.5684C655.222 65.9657 654.284 64.0834 653.799 62.0643C653.315 60.0451 653.296 57.9421 653.745 55.9148C654.194 53.8874 655.099 51.9889 656.391 50.3633C657.683 48.7377 659.328 47.4276 661.202 46.5324Z" fill="#DCD3FF"/>
<path d="M164.502 167.517C161.749 166.193 159.519 163.985 158.166 161.247C156.814 158.508 156.416 155.396 157.037 152.405L170.909 85.6598C172.899 76.0371 177.873 67.2871 185.124 60.6548C192.374 54.0225 201.531 49.8457 211.293 48.7186L252.428 43.9279C254.212 43.7195 256.02 43.8648 257.748 44.3553C259.476 44.8458 261.09 45.6719 262.499 46.7866C263.907 47.9012 265.082 49.2824 265.957 50.8514C266.831 52.4203 267.388 54.1462 267.596 55.9304C267.803 57.7144 267.658 59.5218 267.167 61.2496C266.676 62.9773 265.85 64.5914 264.736 65.9998C263.621 67.4082 262.24 68.5833 260.671 69.458C259.103 70.3327 257.377 70.8898 255.593 71.0975L214.458 75.8883C210.404 76.3563 206.602 78.0905 203.591 80.8444C200.581 83.5982 198.515 87.2314 197.689 91.2269L183.817 157.971C183.395 160.004 182.516 161.914 181.246 163.557C179.975 165.199 178.348 166.531 176.486 167.451C174.625 168.371 172.578 168.855 170.502 168.867C168.425 168.878 166.373 168.417 164.502 167.517Z" fill="#DCD3FF"/>
<path d="M659.533 850.004H264.466C218.405 850.004 178.994 816.934 170.996 771.575L79.9446 255.193H844.052L753 771.575C745.002 816.934 705.591 850.004 659.533 850.004Z" fill="#F5F1FF"/>
<path d="M94.9477 339.972C204.123 350.542 324.674 355.701 461.955 355.701C599.234 355.701 719.784 350.542 828.962 339.972L850.927 217.621H72.9832L94.9477 339.972Z" fill="#E2DBFF"/>
<path d="M923.26 200.841C918.249 156.993 878.642 125.516 834.799 130.525C726.432 142.908 604.488 148.93 461.999 148.93C453.456 148.93 444.991 148.908 436.596 148.864C370.862 168.789 334.59 260.979 467.787 308.731C613.932 308.567 739.984 302.21 852.945 289.302C896.788 284.291 928.269 244.684 923.26 200.841Z" fill="#9C7CF7"/>
<path d="M385.733 106.285C383.937 106.287 382.158 105.935 380.498 105.247C378.839 104.56 377.332 103.552 376.063 102.281L363.836 90.0559C361.29 87.4873 359.865 84.0147 359.872 80.3979C359.88 76.7811 361.32 73.3146 363.878 70.757C366.435 68.1995 369.901 66.759 373.518 66.7509C377.135 66.7428 380.608 68.1677 383.176 70.7139L395.403 82.9387C397.967 85.5034 399.408 88.9818 399.408 92.6088C399.408 96.2357 397.967 99.7141 395.403 102.279C394.135 103.551 392.627 104.56 390.968 105.247C389.308 105.935 387.529 106.288 385.733 106.285Z" fill="#E9E9FF"/>
<path d="M305.019 552.598C337.009 552.598 362.942 531.946 362.942 506.471C362.942 480.995 337.009 460.343 305.019 460.343C273.028 460.343 247.095 480.995 247.095 506.471C247.095 531.946 273.028 552.598 305.019 552.598Z" fill="#E6E0FF"/>
<path d="M618.98 552.598C650.97 552.598 676.903 531.946 676.903 506.471C676.903 480.995 650.97 460.343 618.98 460.343C586.989 460.343 561.056 480.995 561.056 506.471C561.056 531.946 586.989 552.598 618.98 552.598Z" fill="#E6E0FF"/>
<path d="M615.699 474.547C612.072 474.547 608.593 473.106 606.029 470.541C603.464 467.976 602.023 464.498 602.023 460.87C602.023 454.007 596.439 448.423 589.576 448.423C582.712 448.423 577.128 454.008 577.128 460.87C577.128 468.425 571.005 474.547 563.452 474.547C555.899 474.547 549.776 468.425 549.776 460.87C549.776 438.924 567.63 421.07 589.576 421.07C611.522 421.07 629.375 438.924 629.375 460.87C629.375 464.498 627.935 467.976 625.37 470.541C622.805 473.106 619.326 474.547 615.699 474.547Z" fill="#9676F2"/>
<path d="M354.233 470.541C356.798 473.106 360.277 474.547 363.904 474.547C367.531 474.547 371.01 473.106 373.575 470.541C376.14 467.976 377.58 464.498 377.58 460.87C377.58 438.924 359.726 421.07 337.78 421.07C315.835 421.07 297.98 438.924 297.98 460.87C297.98 468.425 304.104 474.547 311.657 474.547C319.21 474.547 325.333 468.425 325.333 460.87C325.333 454.009 330.917 448.423 337.78 448.423C344.644 448.423 350.228 454.007 350.228 460.87C350.228 464.498 351.669 467.976 354.233 470.541Z" fill="#9676F2"/>
<path d="M613.513 687.729L669.927 631.314C672.492 628.749 673.933 625.27 673.933 621.643C673.933 618.015 672.492 614.536 669.927 611.972C667.362 609.407 663.883 607.966 660.256 607.966C656.628 607.966 653.15 609.407 650.585 611.972L594.169 668.387L537.753 611.972C535.188 609.408 531.71 607.968 528.083 607.968C524.457 607.968 520.978 609.408 518.413 611.972L461.999 668.387L405.583 611.972C403.018 609.408 399.54 607.968 395.913 607.968C392.287 607.968 388.808 609.408 386.243 611.972L329.828 668.387L273.412 611.972C270.847 609.407 267.368 607.966 263.741 607.966C260.113 607.966 256.635 609.407 254.07 611.972C251.505 614.536 250.064 618.015 250.064 621.643C250.064 625.27 251.505 628.749 254.07 631.314L310.484 687.729L254.07 744.145C251.585 746.726 250.212 750.179 250.246 753.762C250.28 757.345 251.718 760.772 254.252 763.305C256.785 765.839 260.211 767.277 263.794 767.312C267.377 767.346 270.83 765.973 273.412 763.489L329.828 707.073L386.243 763.489C388.809 766.052 392.287 767.492 395.913 767.492C399.54 767.492 403.018 766.052 405.583 763.489L461.999 707.071L518.415 763.487C520.98 766.05 524.459 767.49 528.085 767.49C531.712 767.49 535.19 766.05 537.755 763.487L594.171 707.071L650.587 763.487C653.168 765.972 656.621 767.344 660.204 767.31C663.787 767.276 667.213 765.837 669.747 763.303C672.28 760.77 673.718 757.343 673.752 753.76C673.786 750.178 672.413 746.724 669.929 744.143L613.513 687.729ZM395.913 734.475L349.169 687.729L395.913 640.984L442.659 687.729L395.913 734.475ZM528.085 734.475L481.339 687.729L528.085 640.984L574.829 687.729L528.085 734.475Z" fill="#E6E0FF"/>
<path d="M436.596 148.862C304.94 148.182 191.069 142.164 89.1989 130.525C45.3635 125.51 5.75139 156.993 0.740388 200.841C-4.26879 244.684 27.2123 284.289 71.0549 289.302C185.508 302.38 313.385 308.738 462.001 308.738C463.939 308.738 465.858 308.733 467.789 308.731C407.038 272.332 404.126 181.457 436.596 148.862Z" fill="#9676F2"/>
<path d="M438.487 484.734C445.87 488.096 453.887 489.837 461.999 489.839C470.112 489.837 478.13 488.096 485.513 484.734C492.896 481.372 499.473 476.467 504.8 470.349C507.123 467.606 508.273 464.06 508.001 460.476C507.729 456.892 506.058 453.559 503.348 451.198C500.638 448.837 497.108 447.637 493.521 447.858C489.934 448.079 486.578 449.703 484.178 452.378C478.578 458.804 470.497 462.488 462.001 462.488C453.505 462.488 445.422 458.803 439.823 452.378C438.643 451.024 437.208 449.916 435.6 449.116C433.992 448.317 432.242 447.842 430.45 447.719C428.658 447.596 426.859 447.827 425.157 448.399C423.454 448.971 421.881 449.873 420.527 451.053C419.173 452.233 418.065 453.668 417.265 455.276C416.466 456.884 415.991 458.634 415.868 460.426C415.745 462.218 415.976 464.017 416.548 465.719C417.12 467.422 418.021 468.995 419.201 470.349C424.528 476.467 431.104 481.372 438.487 484.734Z" fill="#9676F2"/>
</g>
<defs>
<clipPath id="clip0_1_2">
<rect width="924" height="850" fill="white"/>
</clipPath>
</defs>
</svg>
